PathFileType	4	(X/Y/Z)	/Users/itak/Documents/Research/Walk-IL/dataset/trc/00026_00004.trc
DataRate	CameraRate	NumFrames	NumMarkers	Units	OrigDataRate	OrigDataStartFrame	OrigNumFrames
100.000000	100.000000	4	53	mm	100.000000	0	743
Frame#	Time	RPSI			LPSI			L3			STRN			T10			C7			CLAV			RBAK			LBAK			LSHO			LUPA			LAEL			LAOL			LWTS			LWPS			LFRA			LIFD			LHPS			LHTS			RSHO			RUPA			RAEL			RAOL			RWTS			RWPS			RFRA			RIFD			RHTS			RHPS			RBHD			LFHD			RFHD			LBHD			LHIP			RHIP			RASI			LASI			LKNE			LTHI			LANK			LTIP			LTOE			LMT1			LMT5			LHEE			RKNE			RTHI			RANK			RTIP			RTOE			RMT1			RMT5			RHEE			
		X1	Y1	Z1	X2	Y2	Z2	X3	Y3	Z3	X4	Y4	Z4	X5	Y5	Z5	X6	Y6	Z6	X7	Y7	Z7	X8	Y8	Z8	X9	Y9	Z9	X10	Y10	Z10	X11	Y11	Z11	X12	Y12	Z12	X13	Y13	Z13	X14	Y14	Z14	X15	Y15	Z15	X16	Y16	Z16	X17	Y17	Z17	X18	Y18	Z18	X19	Y19	Z19	X20	Y20	Z20	X21	Y21	Z21	X22	Y22	Z22	X23	Y23	Z23	X24	Y24	Z24	X25	Y25	Z25	X26	Y26	Z26	X27	Y27	Z27	X28	Y28	Z28	X29	Y29	Z29	X30	Y30	Z30	X31	Y31	Z31	X32	Y32	Z32	X33	Y33	Z33	X34	Y34	Z34	X35	Y35	Z35	X36	Y36	Z36	X37	Y37	Z37	X38	Y38	Z38	X39	Y39	Z39	X40	Y40	Z40	X41	Y41	Z41	X42	Y42	Z42	X43	Y43	Z43	X44	Y44	Z44	X45	Y45	Z45	X46	Y46	Z46	X47	Y47	Z47	X48	Y48	Z48	X49	Y49	Z49	X50	Y50	Z50	X51	Y51	Z51	X52	Y52	Z52	X53	Y53	Z53	

1	0	-248.2454681396484	1071.202392578125	1145.579345703125	-265.4609680175781	1062.543212890625	981.8447875976562	-264.8681640625	1125.736572265625	1054.531982421875	-49.97346878051758	1322.330444335938	1046.130615234375	-297.177001953125	1270.09130859375	1054.219116210938	-251.4913940429688	1538.686645507812	1041.198486328125	-93.93693542480469	1447.324340820312	1042.751953125	-301.4585571289062	1402.0234375	1123.501586914062	-272.0536804199219	1497.37890625	943.9037475585938	-171.7012176513672	1504.281127929688	867.4413452148438	-201.7051086425781	1377.82666015625	791.3856811523438	-195.3452758789062	1158.851196289062	768.2588500976562	-248.1500091552734	1145.93017578125	859.6005249023438	-102.7851028442383	906.8428955078125	822.3204956054688	-181.0631713867188	891.3643188476562	782.2235717773438	-181.4506530761719	1042.981079101562	762.5797729492188	-75.888671875	726.4573974609375	845.40478515625	-147.1929321289062	801.4093017578125	783.219970703125	-80.73740386962891	813.9442749023438	808.5720825195312	-169.8780059814453	1523.852172851562	1213.90966796875	-182.5470428466797	1455.13427734375	1286.318115234375	-222.9691772460938	1186.732299804688	1312.835327148438	-222.6463012695312	1157.850708007812	1216.240600585938	-94.81509399414062	924.6339721679688	1285.9599609375	-159.4534454345703	911.7593383789062	1348.693969726562	-210.9383697509766	1110.29833984375	1328.6201171875	-80.57003021240234	740.0614013671875	1275.97021484375	-60.73093032836914	815.9680786132812	1303.727661132812	-118.6577529907227	812.0829467773438	1351.852783203125	-226.5286254882812	1715.512817382812	1035.140747070312	-10.19174957275391	1735.157592773438	1011.979370117188	-74.6090087890625	1738.967407226562	937.9646606445312	-126.2923202514648	1707.51611328125	1139.558227539062	-176.1089324951172	963.5718383789062	862.5220336914062	-123.5232086181641	959.4676513671875	1233.264282226562	-28.23297119140625	995.184326171875	1151.708618164062	-55.92807769775391	1012.840087890625	917.9669799804688	-136.3265838623047	517.941650390625	907.0542602539062	-158.7102966308594	655.7791137695312	872.7379150390625	-253.5658264160156	43.97781372070312	903.719482421875	-227.3301849365234	290.4604797363281	888.3978881835938	-32.97095108032227	39.20634841918945	967.9570922851562	-92.70602416992188	47.99732208251953	984.5816650390625	-128.5532073974609	42.56595230102539	885.2442016601562	-322.9629211425781	50.69348907470703	956.3062744140625	-137.3199615478516	524.031494140625	1179.34912109375	-107.5310516357422	792.1409912109375	1224.860961914062	-270.5032653808594	46.41774749755859	1142.764404296875	-170.1567230224609	402.6799926757812	1177.058227539062	-34.7911491394043	46.85572814941406	1130.411376953125	-93.61112976074219	53.1530647277832	1093.124755859375	-125.9045028686523	44.50488662719727	1184.196166992188	-319.918701171875	48.21934127807617	1090.755615234375	
2	0.01	-248.2198791503906	1071.18603515625	1145.57470703125	-265.4581298828125	1062.51806640625	981.844970703125	-264.8389587402344	1125.753051757812	1054.534545898438	-49.93165969848633	1322.338134765625	1046.124267578125	-297.1374816894531	1270.117919921875	1054.212036132812	-251.408935546875	1538.70263671875	1041.1904296875	-93.85968017578125	1447.335815429688	1042.744018554688	-301.3981018066406	1402.04443359375	1123.498413085938	-271.9779968261719	1497.3935546875	943.8763427734375	-171.6160125732422	1504.30078125	867.4368286132812	-201.6121063232422	1377.842407226562	791.3545532226562	-195.2375030517578	1158.874145507812	768.2036743164062	-248.0860290527344	1145.964599609375	859.5354614257812	-102.7019653320312	906.8679809570312	822.2596435546875	-180.9917449951172	891.3917236328125	782.1318359375	-181.3853912353516	1042.992797851562	762.5274047851562	-75.94587707519531	726.5503540039062	845.4385986328125	-147.0874633789062	801.4317016601562	783.1430053710938	-80.66610717773438	813.9475708007812	808.5109252929688	-169.8259429931641	1523.872436523438	1213.906982421875	-182.4456176757812	1455.1533203125	1286.302124023438	-222.9451599121094	1186.724975585938	1312.820068359375	-222.5817565917969	1157.867553710938	1216.21630859375	-94.73667907714844	924.6470336914062	1285.893920898438	-159.3512420654297	911.7674560546875	1348.629638671875	-210.8973999023438	1110.3203125	1328.5859375	-80.53657531738281	740.0687866210938	1275.95068359375	-60.61880493164062	815.9550170898438	1303.703247070312	-118.5781021118164	812.10888671875	1351.780639648438	-226.4400482177734	1715.522094726562	1035.1064453125	-10.05175495147705	1735.117919921875	1011.931274414062	-74.48561096191406	1738.92578125	937.9109497070312	-126.1996612548828	1707.529907226562	1139.509521484375	-176.11328125	963.5685424804688	862.5206909179688	-123.5305404663086	959.458251953125	1233.254272460938	-28.18202781677246	995.1972045898438	1151.6884765625	-55.92831039428711	1012.836975097656	917.9575805664062	-136.348388671875	517.9459228515625	907.0509033203125	-158.7317657470703	655.7735595703125	872.7503051757812	-253.5237731933594	43.94733047485352	903.7981567382812	-227.3506622314453	290.4566040039062	888.3987426757812	-32.96539306640625	39.20458221435547	967.964599609375	-92.70413970947266	47.99648284912109	984.5763549804688	-128.5317687988281	42.5613899230957	885.248291015625	-322.9617004394531	50.68860626220703	956.3121337890625	-137.2168273925781	524.0270385742188	1179.331420898438	-107.4456481933594	792.1251831054688	1224.835327148438	-270.4978942871094	46.43241500854492	1142.759643554688	-170.0810394287109	402.6666259765625	1177.040893554688	-34.77993392944336	46.8457145690918	1130.412475585938	-93.61043548583984	53.17157745361328	1093.07666015625	-125.9045333862305	44.50487518310547	1184.202880859375	-319.9130554199219	48.22823715209961	1090.746215820312	
3	0.02	-248.1815795898438	1071.168579101562	1145.5693359375	-265.4532470703125	1062.488525390625	981.8464965820312	-264.7955322265625	1125.77392578125	1054.542114257812	-49.86941528320312	1322.348999023438	1046.117309570312	-297.0876770019531	1270.148071289062	1054.2041015625	-251.3113555908203	1538.721069335938	1041.184814453125	-93.76035308837891	1447.348022460938	1042.736083984375	-301.3191223144531	1402.066040039062	1123.502807617188	-271.8870239257812	1497.410522460938	943.8471069335938	-171.5133666992188	1504.323974609375	867.4343872070312	-201.5018310546875	1377.860717773438	791.3184814453125	-195.1072235107422	1158.904541015625	768.1382446289062	-248.0051574707031	1146.003662109375	859.4607543945312	-102.6006698608398	906.9002685546875	822.1854248046875	-180.8993682861328	891.4244995117188	782.0177001953125	-181.30078125	1043.007690429688	762.462890625	-75.99943542480469	726.6570434570312	845.4825439453125	-146.9587860107422	801.45849609375	783.0443725585938	-80.56155395507812	813.9540405273438	808.4342041015625	-169.7574310302734	1523.899291992188	1213.906494140625	-182.3265533447266	1455.173217773438	1286.28369140625	-222.9107971191406	1186.713012695312	1312.799560546875	-222.5039367675781	1157.891723632812	1216.18701171875	-94.63458251953125	924.6633911132812	1285.811889648438	-159.2238006591797	911.780517578125	1348.548095703125	-210.8403778076172	1110.346069335938	1328.544921875	-80.49341583251953	740.0752563476562	1275.92138671875	-60.48942947387695	815.9443969726562	1303.658569335938	-118.4734802246094	812.1414794921875	1351.690551757812	-226.3237762451172	1715.535278320312	1035.061767578125	-9.883347511291504	1735.068603515625	1011.884582519531	-74.32325744628906	1738.869506835938	937.849853515625	-126.0987701416016	1707.54931640625	1139.452758789062	-176.1189270019531	963.5631103515625	862.5191040039062	-123.5384750366211	959.4483032226562	1233.242309570312	-28.1119270324707	995.2096557617188	1151.658569335938	-55.92824172973633	1012.834838867188	917.9424438476562	-136.3729858398438	517.9488525390625	907.0440673828125	-158.759765625	655.7681274414062	872.7607421875	-253.4867706298828	43.91754150390625	903.8704223632812	-227.3709106445312	290.4512939453125	888.3988037109375	-32.96007537841797	39.20352935791016	967.9717407226562	-92.70201873779297	47.99062728881836	984.5668334960938	-128.5196533203125	42.55730438232422	885.247802734375	-322.9606018066406	50.68171310424805	956.3184814453125	-137.0953979492188	524.0236206054688	1179.311889648438	-107.3522109985352	792.1067504882812	1224.805053710938	-270.4945678710938	46.44771194458008	1142.753540039062	-169.9867095947266	402.653564453125	1177.018920898438	-34.76657104492188	46.83695220947266	1130.412353515625	-93.610107421875	53.19286346435547	1093.026000976562	-125.9020233154297	44.50756454467773	1184.207885742188	-319.9063110351562	48.238525390625	1090.737548828125	
4	0.03	-248.1296844482422	1071.152587890625	1145.563232421875	-265.4458312988281	1062.455932617188	981.8500366210938	-264.7371826171875	1125.797607421875	1054.556274414062	-49.78581237792969	1322.363037109375	1046.110595703125	-297.0288696289062	1270.1787109375	1054.196655273438	-251.2047729492188	1538.740234375	1041.184326171875	-93.64141082763672	1447.360229492188	1042.729614257812	-301.222900390625	1402.085205078125	1123.5185546875	-271.7864074707031	1497.428100585938	943.8200073242188	-171.4001159667969	1504.34814453125	867.4351196289062	-201.3816223144531	1377.88037109375	791.2804565429688	-194.962890625	1158.941528320312	768.067138671875	-247.9094543457031	1146.044067382812	859.382568359375	-102.4869613647461	906.9383544921875	822.1017456054688	-180.7882843017578	891.4601440429688	781.8873901367188	-181.1992797851562	1043.025268554688	762.3894653320312	-76.03564453125	726.7737426757812	845.5293579101562	-146.8142547607422	801.4874877929688	782.9277954101562	-80.42314910888672	813.9649658203125	808.3449096679688	-169.6734313964844	1523.932006835938	1213.909912109375	-182.1972503662109	1455.191284179688	1286.2646484375	-222.8649597167969	1186.69580078125	1312.774169921875	-222.4170684814453	1157.923217773438	1216.1552734375	-94.51155853271484	924.6831665039062	1285.718017578125	-159.0766754150391	911.7986450195312	1348.45361328125	-210.7662963867188	1110.373046875	1328.499145507812	-80.44022369384766	740.0801391601562	1275.8798828125	-60.35212326049805	815.9365844726562	1303.593505859375	-118.3457870483398	812.178955078125	1351.587158203125	-226.1808624267578	1715.55322265625	1035.007202148438	-9.694584846496582	1735.010864257812	1011.846801757812	-74.12544250488281	1738.799072265625	937.7868041992188	-125.9971694946289	1707.574340820312	1139.3916015625	-176.1259613037109	963.555419921875	862.5171508789062	-123.5461578369141	959.4391479492188	1233.228881835938	-28.0241527557373	995.219970703125	1151.617919921875	-55.92816162109375	1012.833801269531	917.9209594726562	-136.3982849121094	517.9491577148438	907.0328369140625	-158.7919158935547	655.7633666992188	872.7667236328125	-253.4601898193359	43.89108276367188	903.9265747070312	-227.3882904052734	290.4443359375	888.3975830078125	-32.95520401000977	39.20391464233398	967.9774169921875	-92.70011138916016	47.97900772094727	984.5526733398438	-128.5202026367188	42.55437850952148	885.2420043945312	-322.9599304199219	50.672607421875	956.32421875	-136.9654235839844	524.0216674804688	1179.2919921875	-107.2608795166016	792.0875854492188	1224.77294921875	-270.4939270019531	46.46196746826172	1142.746704101562	-169.8804016113281	402.6425170898438	1176.993041992188	-34.75233840942383	46.83106994628906	1130.411010742188	-93.60987091064453	53.21224975585938	1092.980346679688	-125.8971633911133	44.51264953613281	1184.210571289062	-319.8987121582031	48.24904632568359	1090.73046875	
